# xmcd
#
# Track frame offsets:
#       150
#       21881
#       39544
#       83345
#       100938
#       140934
#       179971
#       193186
#       228350
#       258330
#
# Disc length: 4220 seconds
#
# Revision: 1
# Processed by: cddbd v1.5.1PL0 Copyright (c) Steve Scherf et al.
# Submitted via: MusiCat 1.1
#
DISCID=8a107a0a
DTITLE=John Mayall and the Blues Breakers and Friends - St Albans 5 Nov 2004 (di
DTITLE=sc 2)
DYEAR=2004
DGENRE=
TTITLE0=Just Got Back From Baby's
TTITLE1=I Woke Up This Morning
TTITLE2=Southside Story
TTITLE3=Kid's Got The Blues
TTITLE4=Heal The Pain
TTITLE5=Congo Square
TTITLE6=Buddy's Solo
TTITLE7=Hideaway Medley
TTITLE8=Somebody's Acting Like A Child (with Mick Taylor)
TTITLE9=Late At Night (with Mick Taylor)
EXTD=Trial\n\nDisc 2 of 3
EXTT0=
EXTT1=
EXTT2=
EXTT3=
EXTT4=
EXTT5=
EXTT6=
EXTT7=
EXTT8=
EXTT9=
PLAYORDER=
